<?xml version="1.0" encoding="UTF-8" standalone="no"?><svg xmlns="http://www.w3.org/2000/svg" xmlns:xlink="http://www.w3.org/1999/xlink" contentScriptType="application/ecmascript" contentStyleType="text/css" height="177px" preserveAspectRatio="none" style="width:99px;height:177px;background:#FFFFFF;" version="1.1" viewBox="0 0 99 177" width="99px" zoomAndPan="magnify"><defs><filter height="300%" id="fymi3643mlfvi" width="300%" x="-1" y="-1"><feGaussianBlur result="blurOut" stdDeviation="2.0"/><feColorMatrix in="blurOut" result="blurOut2" type="matrix" values="0 0 0 0 0 0 0 0 0 0 0 0 0 0 0 0 0 0 .4 0"/><feOffset dx="4.0" dy="4.0" in="blurOut2" result="blurOut3"/><feBlend in="SourceGraphic" in2="blurOut3" mode="normal"/></filter></defs><g><!--MD5=[6f6af049516bc56aac6e320b3234ce97]
class Supplier--><rect fill="#FEFECE" filter="url(#fymi3643mlfvi)" height="48" id="Supplier" style="stroke:#A80036;stroke-width:1.5;" width="78" x="7" y="7"/><ellipse cx="22" cy="23" fill="#ADD1B2" rx="11" ry="11" style="stroke:#A80036;stroke-width:1.0;"/><path d="M20.5781,28.3594 Q18.7188,28.3594 17.625,26.9688 Q16.5313,25.5781 16.5313,22.5938 Q16.5313,20.0625 17.6953,18.4063 Q18.8594,16.75 20.8438,16.75 Q22.3125,16.75 22.7813,16.875 Q23.25,17.0781 23.25,17.0781 Q23.25,17.0781 23.25,17.0078 Q23.25,16.9375 23.8594,16.0156 L24.9063,19.6719 L23.5781,20.0781 Q23.1094,18.5313 22.4453,17.8672 Q21.7813,17.2031 20.7188,17.2031 Q20.3281,17.2031 19.5625,18.7344 Q18.7969,20.2656 18.7969,22.5156 Q18.7969,24.9844 19.4609,26.375 Q20.125,27.7656 20.6563,27.7656 Q21.7188,27.7656 22.4766,27 Q23.2344,26.2344 23.5781,24.5781 L24.9063,25.1719 Q24.5781,26.5781 23.6797,27.4688 Q22.7813,28.3594 20.5781,28.3594 Z " fill="#000000"/><text fill="#000000" font-family="sans-serif" font-size="12" lengthAdjust="spacing" textLength="46" x="36" y="28.5576">Supplier</text><line style="stroke:#A80036;stroke-width:1.5;" x1="8" x2="84" y1="39" y2="39"/><line style="stroke:#A80036;stroke-width:1.5;" x1="8" x2="84" y1="47" y2="47"/><!--MD5=[ed6624c6556d5e7b1bd23032162d20b7]
class Client--><rect fill="#FEFECE" filter="url(#fymi3643mlfvi)" height="48" id="Client" style="stroke:#A80036;stroke-width:1.5;" width="64" x="14" y="115"/><ellipse cx="29" cy="131" fill="#ADD1B2" rx="11" ry="11" style="stroke:#A80036;stroke-width:1.0;"/><path d="M27.5781,136.3594 Q25.7188,136.3594 24.625,134.9688 Q23.5313,133.5781 23.5313,130.5938 Q23.5313,128.0625 24.6953,126.4063 Q25.8594,124.75 27.8438,124.75 Q29.3125,124.75 29.7813,124.875 Q30.25,125.0781 30.25,125.0781 Q30.25,125.0781 30.25,125.0078 Q30.25,124.9375 30.8594,124.0156 L31.9063,127.6719 L30.5781,128.0781 Q30.1094,126.5313 29.4453,125.8672 Q28.7813,125.2031 27.7188,125.2031 Q27.3281,125.2031 26.5625,126.7344 Q25.7969,128.2656 25.7969,130.5156 Q25.7969,132.9844 26.4609,134.375 Q27.125,135.7656 27.6563,135.7656 Q28.7188,135.7656 29.4766,135 Q30.2344,134.2344 30.5781,132.5781 L31.9063,133.1719 Q31.5781,134.5781 30.6797,135.4688 Q29.7813,136.3594 27.5781,136.3594 Z " fill="#000000"/><text fill="#000000" font-family="sans-serif" font-size="12" lengthAdjust="spacing" textLength="32" x="43" y="136.5576">Client</text><line style="stroke:#A80036;stroke-width:1.5;" x1="15" x2="77" y1="147" y2="147"/><line style="stroke:#A80036;stroke-width:1.5;" x1="15" x2="77" y1="155" y2="155"/><!--MD5=[1d6e96bbe40ca13f4aa593dd519f71a5]
reverse link Supplier to Client--><path codeLine="2" d="M46,60.131 C46,77.1538 46,98.6037 46,114.6784 " fill="none" id="Supplier-backto-Client" style="stroke:#A80036;stroke-width:1.0;stroke-dasharray:7.0,7.0;"/><polygon fill="#A80036" points="46,55,42,64,46,60,50,64,46,55" style="stroke:#A80036;stroke-width:1.0;"/><!--MD5=[06733267548df2c020e8b88554aece6c]
@startuml

"Supplier" <.. "Client"

@enduml

PlantUML version 1.2021.9(Sun Jul 25 18:13:56 CST 2021)
(GPL source distribution)
Java Runtime: Java(TM) SE Runtime Environment
JVM: Java HotSpot(TM) Client VM
Default Encoding: GBK
Language: en
Country: US
--></g></svg>