<?xml version="1.0" encoding="UTF-8" standalone="no"?><svg xmlns="http://www.w3.org/2000/svg" xmlns:xlink="http://www.w3.org/1999/xlink" contentScriptType="application/ecmascript" contentStyleType="text/css" height="177px" preserveAspectRatio="none" style="width:128px;height:177px;background:#FFFFFF;" version="1.1" viewBox="0 0 128 177" width="128px" zoomAndPan="magnify"><defs><filter height="300%" id="f1vbvevgo9oex8" width="300%" x="-1" y="-1"><feGaussianBlur result="blurOut" stdDeviation="2.0"/><feColorMatrix in="blurOut" result="blurOut2" type="matrix" values="0 0 0 0 0 0 0 0 0 0 0 0 0 0 0 0 0 0 .4 0"/><feOffset dx="4.0" dy="4.0" in="blurOut2" result="blurOut3"/><feBlend in="SourceGraphic" in2="blurOut3" mode="normal"/></filter></defs><g><!--MD5=[d59d8d033596a2794420c3e9d46207cd]
class Fixed Account--><rect fill="#FEFECE" filter="url(#f1vbvevgo9oex8)" height="48" id="Fixed Account" style="stroke:#A80036;stroke-width:1.5;" width="107" x="7" y="7"/><ellipse cx="22" cy="23" fill="#ADD1B2" rx="11" ry="11" style="stroke:#A80036;stroke-width:1.0;"/><path d="M20.5781,28.3594 Q18.7188,28.3594 17.625,26.9688 Q16.5313,25.5781 16.5313,22.5938 Q16.5313,20.0625 17.6953,18.4063 Q18.8594,16.75 20.8438,16.75 Q22.3125,16.75 22.7813,16.875 Q23.25,17.0781 23.25,17.0781 Q23.25,17.0781 23.25,17.0078 Q23.25,16.9375 23.8594,16.0156 L24.9063,19.6719 L23.5781,20.0781 Q23.1094,18.5313 22.4453,17.8672 Q21.7813,17.2031 20.7188,17.2031 Q20.3281,17.2031 19.5625,18.7344 Q18.7969,20.2656 18.7969,22.5156 Q18.7969,24.9844 19.4609,26.375 Q20.125,27.7656 20.6563,27.7656 Q21.7188,27.7656 22.4766,27 Q23.2344,26.2344 23.5781,24.5781 L24.9063,25.1719 Q24.5781,26.5781 23.6797,27.4688 Q22.7813,28.3594 20.5781,28.3594 Z " fill="#000000"/><text fill="#000000" font-family="sans-serif" font-size="12" lengthAdjust="spacing" textLength="75" x="36" y="28.5576">Fixed Account</text><line style="stroke:#A80036;stroke-width:1.5;" x1="8" x2="113" y1="39" y2="39"/><line style="stroke:#A80036;stroke-width:1.5;" x1="8" x2="113" y1="47" y2="47"/><!--MD5=[5bd081676207791ae3504d66532ee067]
class Back Account--><rect fill="#FEFECE" filter="url(#f1vbvevgo9oex8)" height="48" id="Back Account" style="stroke:#A80036;stroke-width:1.5;" width="105" x="8" y="115"/><ellipse cx="23" cy="131" fill="#ADD1B2" rx="11" ry="11" style="stroke:#A80036;stroke-width:1.0;"/><path d="M21.5781,136.3594 Q19.7188,136.3594 18.625,134.9688 Q17.5313,133.5781 17.5313,130.5938 Q17.5313,128.0625 18.6953,126.4063 Q19.8594,124.75 21.8438,124.75 Q23.3125,124.75 23.7813,124.875 Q24.25,125.0781 24.25,125.0781 Q24.25,125.0781 24.25,125.0078 Q24.25,124.9375 24.8594,124.0156 L25.9063,127.6719 L24.5781,128.0781 Q24.1094,126.5313 23.4453,125.8672 Q22.7813,125.2031 21.7188,125.2031 Q21.3281,125.2031 20.5625,126.7344 Q19.7969,128.2656 19.7969,130.5156 Q19.7969,132.9844 20.4609,134.375 Q21.125,135.7656 21.6563,135.7656 Q22.7188,135.7656 23.4766,135 Q24.2344,134.2344 24.5781,132.5781 L25.9063,133.1719 Q25.5781,134.5781 24.6797,135.4688 Q23.7813,136.3594 21.5781,136.3594 Z " fill="#000000"/><text fill="#000000" font-family="sans-serif" font-size="12" lengthAdjust="spacing" textLength="73" x="37" y="136.5576">Back Account</text><line style="stroke:#A80036;stroke-width:1.5;" x1="9" x2="112" y1="147" y2="147"/><line style="stroke:#A80036;stroke-width:1.5;" x1="9" x2="112" y1="155" y2="155"/><!--MD5=[dec8fff23d6bcde798618395f04db74f]
reverse link Fixed Account to Back Account--><path codeLine="2" d="M60.5,75.0236 C60.5,88.5792 60.5,103.0381 60.5,114.6784 " fill="none" id="Fixed Account-backto-Back Account" style="stroke:#A80036;stroke-width:1.0;"/><polygon fill="none" points="53.5001,75.0005,60.5,55,67.5001,75.0004,53.5001,75.0005" style="stroke:#A80036;stroke-width:1.0;"/><!--MD5=[c18f440a22a5ee11128a456410c605eb]
@startuml

"Fixed Account" <|- - "Back Account"

@enduml

PlantUML version 1.2021.9(Sun Jul 25 18:13:56 CST 2021)
(GPL source distribution)
Java Runtime: Java(TM) SE Runtime Environment
JVM: Java HotSpot(TM) Client VM
Default Encoding: GBK
Language: en
Country: US
--></g></svg>