<?xml version="1.0" encoding="UTF-8" standalone="no"?><svg xmlns="http://www.w3.org/2000/svg" xmlns:xlink="http://www.w3.org/1999/xlink" contentScriptType="application/ecmascript" contentStyleType="text/css" height="177px" preserveAspectRatio="none" style="width:89px;height:177px;background:#FFFFFF;" version="1.1" viewBox="0 0 89 177" width="89px" zoomAndPan="magnify"><defs><filter height="300%" id="ftm7puujkyzq7" width="300%" x="-1" y="-1"><feGaussianBlur result="blurOut" stdDeviation="2.0"/><feColorMatrix in="blurOut" result="blurOut2" type="matrix" values="0 0 0 0 0 0 0 0 0 0 0 0 0 0 0 0 0 0 .4 0"/><feOffset dx="4.0" dy="4.0" in="blurOut2" result="blurOut3"/><feBlend in="SourceGraphic" in2="blurOut3" mode="normal"/></filter></defs><g><!--MD5=[69f2f3ad3645114d26612368d508f737]
class Printer--><rect fill="#FEFECE" filter="url(#ftm7puujkyzq7)" height="48" id="Printer" style="stroke:#A80036;stroke-width:1.5;" width="68" x="7" y="7"/><ellipse cx="22" cy="23" fill="#ADD1B2" rx="11" ry="11" style="stroke:#A80036;stroke-width:1.0;"/><path d="M20.5781,28.3594 Q18.7188,28.3594 17.625,26.9688 Q16.5313,25.5781 16.5313,22.5938 Q16.5313,20.0625 17.6953,18.4063 Q18.8594,16.75 20.8438,16.75 Q22.3125,16.75 22.7813,16.875 Q23.25,17.0781 23.25,17.0781 Q23.25,17.0781 23.25,17.0078 Q23.25,16.9375 23.8594,16.0156 L24.9063,19.6719 L23.5781,20.0781 Q23.1094,18.5313 22.4453,17.8672 Q21.7813,17.2031 20.7188,17.2031 Q20.3281,17.2031 19.5625,18.7344 Q18.7969,20.2656 18.7969,22.5156 Q18.7969,24.9844 19.4609,26.375 Q20.125,27.7656 20.6563,27.7656 Q21.7188,27.7656 22.4766,27 Q23.2344,26.2344 23.5781,24.5781 L24.9063,25.1719 Q24.5781,26.5781 23.6797,27.4688 Q22.7813,28.3594 20.5781,28.3594 Z " fill="#000000"/><text fill="#000000" font-family="sans-serif" font-size="12" lengthAdjust="spacing" textLength="36" x="36" y="28.5576">Printer</text><line style="stroke:#A80036;stroke-width:1.5;" x1="8" x2="74" y1="39" y2="39"/><line style="stroke:#A80036;stroke-width:1.5;" x1="8" x2="74" y1="47" y2="47"/><!--MD5=[9645d0f1220e3b41ae9f435d900372cf]
class HP--><rect fill="#FEFECE" filter="url(#ftm7puujkyzq7)" height="48" id="HP" style="stroke:#A80036;stroke-width:1.5;" width="49" x="16.5" y="115"/><ellipse cx="31.5" cy="131" fill="#ADD1B2" rx="11" ry="11" style="stroke:#A80036;stroke-width:1.0;"/><path d="M30.0781,136.3594 Q28.2188,136.3594 27.125,134.9688 Q26.0313,133.5781 26.0313,130.5938 Q26.0313,128.0625 27.1953,126.4063 Q28.3594,124.75 30.3438,124.75 Q31.8125,124.75 32.2813,124.875 Q32.75,125.0781 32.75,125.0781 Q32.75,125.0781 32.75,125.0078 Q32.75,124.9375 33.3594,124.0156 L34.4063,127.6719 L33.0781,128.0781 Q32.6094,126.5313 31.9453,125.8672 Q31.2813,125.2031 30.2188,125.2031 Q29.8281,125.2031 29.0625,126.7344 Q28.2969,128.2656 28.2969,130.5156 Q28.2969,132.9844 28.9609,134.375 Q29.625,135.7656 30.1563,135.7656 Q31.2188,135.7656 31.9766,135 Q32.7344,134.2344 33.0781,132.5781 L34.4063,133.1719 Q34.0781,134.5781 33.1797,135.4688 Q32.2813,136.3594 30.0781,136.3594 Z " fill="#000000"/><text fill="#000000" font-family="sans-serif" font-size="12" lengthAdjust="spacing" textLength="17" x="45.5" y="136.5576">HP</text><line style="stroke:#A80036;stroke-width:1.5;" x1="17.5" x2="64.5" y1="147" y2="147"/><line style="stroke:#A80036;stroke-width:1.5;" x1="17.5" x2="64.5" y1="155" y2="155"/><!--MD5=[1a1a5c0b851bf7b8fa4b6601aacbae1e]
reverse link Printer to HP--><path codeLine="2" d="M41,75.0236 C41,88.5792 41,103.0381 41,114.6784 " fill="none" id="Printer-backto-HP" style="stroke:#A80036;stroke-width:1.0;stroke-dasharray:7.0,7.0;"/><polygon fill="none" points="34.0001,75.0005,41,55,48.0001,75.0004,34.0001,75.0005" style="stroke:#A80036;stroke-width:1.0;"/><!--MD5=[dde58b7ded7b904c447a59260b0a1f4f]
@startuml

"Printer" <|.. "HP"

@enduml

PlantUML version 1.2021.9(Sun Jul 25 18:13:56 CST 2021)
(GPL source distribution)
Java Runtime: Java(TM) SE Runtime Environment
JVM: Java HotSpot(TM) Client VM
Default Encoding: GBK
Language: en
Country: US
--></g></svg>